<svg width="295" height="232" viewBox="0 0 295 232" fill="none" xmlns="http://www.w3.org/2000/svg">
<g filter="url(#filter0_d)">
<path d="M238.986 218.203C255.496 218.203 268.881 215.15 268.881 211.385C268.881 207.619 255.496 204.566 238.986 204.566C222.475 204.566 209.091 207.619 209.091 211.385C209.091 215.15 222.475 218.203 238.986 218.203Z" fill="#EDF0F7"/>
<path d="M46.1747 204.497C42.1187 208.322 29.5243 192.553 15.9788 190.161C2.43338 187.77 15.8949 177.064 17.1152 169.952C18.3355 162.84 5.46836 156.203 7.57675 150.186C9.68514 144.168 16.853 143.864 21.1712 151.553C25.4893 159.242 22.3914 144.438 26.346 143.738C30.3005 143.039 35.1991 165.976 38.8949 162.032C42.5907 158.088 44.5348 145.571 49.7516 162.892C54.9684 180.214 54.9019 196.266 46.1747 204.497Z" fill="#43C66F"/>
<path d="M25.6988 183.954L26.2583 182.727C31.1918 186.51 38.3422 186.643 40.6604 186.573C38.9855 181.262 36.9331 176.178 34.6009 173.5C32.1883 170.702 29.4331 168.531 26.5065 166.213C25.1079 165.118 23.7093 164 22.3597 162.811C21.2128 163.16 17.6604 164.056 16.587 162.503L17.4086 161.573C17.7583 162.104 19.4191 162.038 21.0835 161.699C18.067 159.027 15.5437 155.846 13.6289 152.3L14.559 151.496C17.8212 157.66 22.5275 161.395 27.0834 165.007L27.7233 165.517C28.3597 164.818 29.9016 162.671 28.8212 158.577L29.8702 158.111C31.024 162.486 29.6009 165.125 28.6918 166.286C31.0849 168.136 33.3082 170.195 35.3352 172.44C36.5723 173.978 37.6053 175.669 38.4086 177.472C39.8772 176.311 44.559 172.118 44.6184 165.825H45.7513C45.6918 171.769 42.0974 175.909 39.9925 177.828C39.5974 178.178 39.2583 178.468 38.9995 178.671C43.3597 188.601 46.1044 203.846 46.2443 204.65L45.1743 204.968C44.1047 199.235 42.7475 193.558 41.1079 187.961C39.2303 188.087 31.2793 188.234 25.6988 183.954Z" fill="#F2F2F2"/>
<path d="M58.0973 202.204C51.9434 203.543 46.5588 173.532 34.9784 168.637C17.7057 161.34 36.1602 149.871 40.5728 142.833C44.9854 135.794 33.5064 119.057 38.4434 113.948C43.3805 108.84 51.4889 113.599 52.9994 125.263C54.5099 136.927 57.412 118.218 62.1148 120.291C66.8176 122.364 62.4295 151.431 68.2267 149.704C74.0239 147.976 81.5728 135.434 79.9434 158.48C78.3141 181.525 71.3455 199.329 58.0973 202.204Z" fill="#18CC55"/>
<path d="M44.1254 164.598L45.2757 163.633C49.1429 171.399 57.0485 176.678 59.6534 178.294C60.0729 171.175 59.9541 164.035 58.5205 159.381C57.031 154.552 54.8946 150.122 52.6359 145.437C51.5694 143.22 50.4995 140.969 49.489 138.661C48.0624 138.196 43.7198 136.657 43.1953 134.161L44.517 133.696C44.6953 134.552 46.545 135.685 48.5555 136.493C46.3836 131.453 44.955 126.125 44.3142 120.675L45.6743 120.434C46.6464 129.643 50.2897 137.217 53.8072 144.504C53.975 144.853 54.1569 145.203 54.3002 145.535C55.3107 145.227 57.9541 143.937 58.496 138.601L59.8527 138.839C59.2618 144.538 56.5415 146.458 55.031 147.091C56.8949 150.854 58.4864 154.747 59.7932 158.738C60.5069 161.29 60.9361 163.913 61.0729 166.559C63.2058 166.325 70.2233 165.031 72.9855 158.084L74.2023 158.899C71.5834 165.479 65.8107 167.497 62.6359 168.115C62.0415 168.231 61.545 168.297 61.1708 168.339C61.7617 182.535 58.2722 201.483 58.0904 202.479L56.7582 202.059C56.7932 201.881 58.7338 191.343 59.5554 180.199C57.4121 178.934 48.4995 173.364 44.1254 164.598Z" fill="#E6E9F8"/>
<path d="M98.8392 23.825L105.36 29.4684V34.4194C105.36 35.0272 105.48 35.629 105.713 36.1905C105.945 36.752 106.286 37.2621 106.716 37.6917C107.146 38.1213 107.657 38.4619 108.218 38.6942C108.78 38.9265 109.382 39.0458 109.99 39.0453H188.636C189.863 39.0453 191.04 38.558 191.907 37.6904C192.775 36.8229 193.262 35.6463 193.262 34.4194V12.9579C193.254 11.7336 192.764 10.5618 191.898 9.69603C191.033 8.83029 189.861 8.34028 188.636 8.33203H109.965C108.74 8.33573 107.566 8.82451 106.701 9.69143C105.835 10.5583 105.348 11.7328 105.346 12.9579V17.9055L98.8392 23.4264C98.8122 23.4496 98.79 23.4778 98.774 23.5095C98.758 23.5412 98.7484 23.5758 98.7458 23.6112C98.7432 23.6466 98.7477 23.6822 98.7589 23.7159C98.7701 23.7496 98.7879 23.7808 98.8112 23.8076L98.8392 23.825Z" fill="#9EA7BA"/>
<path d="M184.518 14.1758H164.081V19.9625H184.518V14.1758Z" fill="white"/>
<path d="M184.514 23.6211H114.72V32.4917H184.514V23.6211Z" fill="white"/>
<path d="M212.28 76.5084L205.801 82.1518V87.1028C205.792 88.3335 205.298 89.5109 204.425 90.3782C203.551 91.2455 202.371 91.7322 201.14 91.7322H122.5C121.274 91.7267 120.099 91.2373 119.231 90.3704C118.364 89.5035 117.874 88.3292 117.867 87.1028V65.6413C117.866 64.4097 118.353 63.2279 119.221 62.3544C120.09 61.4809 121.268 60.9869 122.5 60.9805H201.171C201.783 60.9805 202.389 61.101 202.955 61.3353C203.52 61.5696 204.033 61.913 204.466 62.3458C204.898 62.7786 205.241 63.2925 205.475 63.8579C205.709 64.4234 205.829 65.0294 205.829 65.6413V70.5889L210.549 74.6028L212.297 76.1028C212.346 76.1525 212.373 76.2189 212.373 76.2881C212.373 76.3574 212.346 76.4239 212.297 76.4735C212.293 76.4857 212.287 76.4974 212.28 76.5084Z" fill="#9EA7BA"/>
<path d="M147.056 66.8594H126.619V72.6461H147.056V66.8594Z" fill="white"/>
<path d="M196.412 76.3086H126.619V85.1792H196.412V76.3086Z" fill="white"/>
<path d="M98.8393 129.198L105.36 134.831V139.778C105.358 140.387 105.476 140.991 105.707 141.554C105.938 142.117 106.278 142.629 106.708 143.061C107.137 143.492 107.647 143.835 108.209 144.069C108.771 144.303 109.374 144.424 109.983 144.425H188.654C189.881 144.424 191.058 143.936 191.925 143.068C192.793 142.2 193.28 141.023 193.28 139.796V118.317C193.273 117.092 192.783 115.919 191.917 115.053C191.051 114.186 189.879 113.696 188.654 113.688H109.983C108.755 113.689 107.579 114.178 106.711 115.045C105.843 115.913 105.355 117.09 105.353 118.317V123.268L98.8463 128.771C98.7908 128.817 98.7551 128.882 98.7466 128.953C98.7381 129.024 98.7576 129.096 98.8009 129.153L98.8393 129.198Z" fill="#CBCFD7"/>
<path d="M184.518 119.543H164.081V125.33H184.518V119.543Z" fill="white"/>
<path d="M184.514 128.988H114.72V137.859H184.514V128.988Z" fill="white"/>
<path d="M171.81 67.0081C169.456 65.1992 168 62.7752 168 60.0899C168 54.5143 174.279 49.992 182.01 50C189.741 50.0081 196 54.5304 196 60.11C196 65.6896 189.721 70.2119 181.994 70.2079C180.204 70.2093 178.422 69.9535 176.7 69.4482L169.377 71.9847C169.347 71.9961 169.315 72.0013 169.282 71.9997C169.25 71.9982 169.218 71.9901 169.189 71.9759C169.16 71.9617 169.134 71.9416 169.112 71.9169C169.091 71.8922 169.074 71.8633 169.063 71.8319C169.047 71.7983 169.038 71.7611 169.038 71.7234C169.038 71.6857 169.047 71.6485 169.063 71.6149L171.81 67.0081Z" fill="#2C6AFA"/>
<path d="M177 58.7495H180.751L180.755 55H183.253L183.245 58.7534H187V61.2505H183.245L183.241 65H180.751V61.2466H177V58.7495Z" fill="white"/>
<path d="M262.238 198.773L263.171 200.304C263.171 200.304 263.217 200.304 263.254 200.465V200.498C263.692 201.271 264 202.109 264.167 202.979C264.2 203.197 264.188 203.419 264.134 203.633C263.859 204.737 270.629 201.565 270.629 201.565C270.301 201.367 270.001 201.127 269.738 200.849C269.396 200.51 268.734 199.195 267.825 197.223L262.238 198.773Z" fill="#EDB6A4"/>
<path d="M259.364 212.609L272.706 204.832C272.881 202.848 271.964 201.427 270.204 200.371C268.095 201.806 265.927 202.785 263.658 202.951C262.737 205.432 260.782 208.101 258.372 210.838C257.65 211.804 258.172 212.324 259.364 212.609Z" fill="#7A8398"/>
<path d="M272.577 204.867L259.249 212.473L259.576 213.047L272.904 205.442L272.577 204.867Z" fill="#0E1524"/>
<path d="M268.881 198.118L262.79 201.07L241.843 159.027L236.364 125.049L253.846 124.496C254.964 131.626 255.073 144.792 254.265 158.208C257.055 162.976 263.133 182.653 268.881 198.118Z" fill="#37445F"/>
<path d="M225.689 200.371L225.832 202.178V202.392C225.873 203.284 225.775 204.177 225.542 205.038C225.474 205.245 225.366 205.437 225.224 205.6C224.51 206.438 231.818 206.665 231.818 206.665C231.618 206.336 231.462 205.981 231.357 205.608C231.202 205.151 231.21 203.658 231.275 201.465L225.689 200.371Z" fill="#EDB6A4"/>
<path d="M216.901 211.561L232.202 210.712C233.213 209.013 233.034 207.314 231.919 205.589C229.424 205.912 227.053 205.797 224.953 204.918C223.048 206.715 220.137 208.197 216.788 209.552C215.719 210.066 215.957 210.792 216.901 211.561Z" fill="#7A8398"/>
<path d="M232.13 210.51L216.783 211.43L216.823 212.09L232.17 211.17L232.13 210.51Z" fill="#0E1524"/>
<path d="M248.252 79.3906L260.934 102.991L262.937 131.488L256.619 129.454L254.001 109.375L250.717 99.9091L248.252 79.3906Z" fill="#EDB6A4"/>
<path d="M231.763 202.82H224.647L223.077 158.933L226.476 125.547L244.056 127.598C243.541 133.988 238.929 148.847 234.299 162.433C234.864 175.301 233.437 188.816 231.763 202.82Z" fill="#37445F"/>
<path d="M200.095 107.871C200.866 109.313 201.914 110.588 203.178 111.622C204.443 112.656 205.899 113.43 207.463 113.898L224.617 119.076L225.564 119.35L229.717 120.599L252.561 127.479L261.192 130.08L275.729 143.008C275.934 143.213 276.203 143.341 276.492 143.371C276.78 143.401 277.069 143.331 277.312 143.172C277.555 143.014 277.737 142.777 277.826 142.501C277.916 142.225 277.909 141.927 277.806 141.656L276.393 134.093C279.38 134.09 282.267 133.009 284.523 131.048C286.78 129.087 288.257 126.377 288.684 123.414C289.111 120.452 288.458 117.434 286.847 114.914C285.235 112.394 282.772 110.539 279.907 109.69L253.446 101.744L225.011 93.195L222.935 92.5623L222.013 92.2835L214.628 90.065C212.272 89.3507 209.758 89.3534 207.404 90.0727C205.05 90.7921 202.962 92.1956 201.405 94.1055C199.848 96.0154 198.892 98.3456 198.658 100.801C198.424 103.256 198.923 105.725 200.091 107.896L200.095 107.871Z" fill="#2C6AFA"/>
<path d="M243.116 103.565L241.91 107.555L266.869 115.095L268.075 111.105L243.116 103.565Z" fill="white"/>
<path d="M210.499 103.645L209.304 107.625L265.225 124.424L266.421 120.444L210.499 103.645Z" fill="white"/>
<path d="M191.958 67.8833C200.441 77.375 211.841 91.8953 215.037 93.0267C216.358 92.6077 218.696 90.3992 221.287 88.0651C222.537 86.9462 223.871 85.8022 225.175 84.8132L222.016 75.4557L213.954 83.1328L194.308 65.0547L192.975 66.6806L191.958 67.8833Z" fill="#EDB6A4"/>
<path d="M189.274 66.4641C190.073 67.2518 190.86 67.8918 191.977 67.8508L193.009 66.6651L194.405 65.061C194.311 64.5605 194.203 64.0436 193.976 63.1451C194.097 62.4215 194.108 61.6852 194.01 60.9585C192.609 62.1441 191.814 58.2589 190.348 58.8169C189.351 59.3625 188.728 61.1595 188.629 62.3861C188.449 63.0729 188.414 63.7867 188.524 64.4866C188.635 65.1865 188.89 65.8585 189.274 66.4641Z" fill="#EDB6A4"/>
<path d="M256.291 129.654C255.007 128.415 255.737 127.146 256.571 126.221C259.035 125.626 260.207 125.746 263.148 127.415C263.431 129.187 264.219 130.828 262.876 131.439C260.754 131.753 258.568 130.514 256.291 129.654Z" fill="#EDB6A4"/>
<path d="M220.098 89.0588C220.382 89.403 220.607 89.6103 220.774 89.6103L222.35 88.503C222.343 88.6204 222.356 88.738 222.387 88.8514C222.483 90.0955 222.596 91.2152 222.737 92.3432C223.188 96.3742 223.759 99.9199 224.267 103.362C224.355 103.972 224.451 104.606 224.522 105.207C225.245 109.807 225.538 114.463 225.397 119.117C225.259 122.565 224.873 125.999 224.243 129.393L226.811 129.19L252.508 127.212L254.401 127.067C254.33 125.035 254.272 123.032 254.218 121.078C254.18 119.598 254.138 118.138 254.105 116.72C253.934 111.262 253.734 106.219 253.38 101.562C253.23 99.3518 253.029 97.2492 252.767 95.2545C254.11 94.532 255.306 93.5673 256.294 92.4096C256.294 92.4096 249.073 79.9684 248.181 79.0519C240.502 74.5191 231.38 72.6198 221.945 75.5517L216.109 80.3209C215.717 80.6485 220.098 89.0588 220.098 89.0588Z" fill="#A0BCFF"/>
<path d="M238.47 70.2693C238.825 73.0283 238.128 73.1677 239.86 75.2667C236.429 75.5701 231.254 76.0415 229.72 74.086C231.174 72.4462 231.212 70.6629 231.672 68.2031L238.47 70.2693Z" fill="#E0A494"/>
<path d="M238.082 72.0508C234.163 71.9592 230.324 71.8259 228.71 70.2805C227.757 68.3727 227.52 58.8586 229.263 56.2343L239.796 54.918L243.007 63.3948L238.082 72.0508Z" fill="#EDB6A4"/>
<path d="M234.448 61.0941C231.849 60.8025 229.622 60.1026 228.077 58.6569C226.964 57.6071 226.348 53.3826 226.65 51.9912C228.927 49.2499 233.096 51.8079 236.931 51.6995C239.223 51.7437 241.432 52.567 243.189 54.0326C245.701 55.974 246.316 58.9069 246.12 62.2481C245.479 68.0265 239.346 72.3551 236.935 72.7467C235.616 70.9761 234.905 69.2139 235.499 67.4974C236.755 67.1266 237.781 66.3351 237.965 65.2811C237.989 64.8681 237.913 64.4553 237.743 64.0781C237.572 63.7008 237.312 63.3702 236.985 63.1147C236.148 62.6981 235.081 63.8063 234.193 64.9228L233.385 64.1562C233.938 63.1147 234.541 62.0482 234.448 61.0941Z" fill="#3A3531"/>
<path opacity="0.05" d="M222.028 92.1838C222.325 93.8067 223.267 97.04 223.572 98.8078C223.774 99.9091 224.035 101.764 224.27 103.424C224.365 104.14 224.46 104.803 224.53 105.378C224.625 106.115 224.695 106.69 224.712 106.968C224.807 107.957 225.025 113.592 224.955 115.79C224.902 116.816 224.797 117.838 224.642 118.854L225.579 119.127C225.442 122.571 225.059 126.001 224.435 129.39L226.978 129.183C227.267 128.543 227.636 127.944 228.077 127.399C228.795 126.571 229.662 122.6 229.695 120.361C229.728 120.068 229.728 119.772 229.695 119.479C229.477 117.628 227.779 109.328 227.709 107.096C227.639 104.865 226.334 100.927 225.723 99.0314C225.376 97.9591 225.174 95.3923 225.025 93.0905C224.914 91.2234 224.881 89.5467 224.881 88.9505C225.013 87.6025 225.29 86.2728 225.707 84.9844C225.191 85.9449 222.598 88.9505 222.598 88.9505C222.693 90.1718 222.804 91.3103 222.944 92.4364L222.028 92.1838Z" fill="black"/>
<path d="M279.955 127.294L270.979 124.548L272.296 120.168C272.657 118.967 273.475 117.959 274.57 117.366C275.666 116.774 276.949 116.644 278.139 117.006C279.329 117.371 280.327 118.198 280.913 119.306C281.5 120.414 281.628 121.712 281.268 122.914L279.955 127.294Z" fill="white"/>
<path d="M278.542 115.135C278.121 114.995 277.666 115.04 277.275 115.26C276.885 115.48 276.591 115.859 276.457 116.312L276.224 117.153L279.418 118.202L279.656 117.356C279.776 116.902 279.727 116.415 279.518 116C279.31 115.585 278.959 115.274 278.542 115.135Z" fill="white"/>
<path d="M276.574 127.805L273.144 126.945C273.086 127.102 273.065 127.267 273.084 127.43C273.102 127.594 273.16 127.753 273.252 127.898C273.345 128.043 273.471 128.171 273.624 128.276C273.777 128.38 273.953 128.459 274.142 128.507L274.665 128.638C274.856 128.687 275.056 128.704 275.255 128.688C275.453 128.672 275.646 128.624 275.822 128.547C275.998 128.469 276.153 128.364 276.28 128.237C276.407 128.109 276.502 127.962 276.561 127.805H276.574Z" fill="white"/>
<path d="M269.963 124.737L269.784 125.326C269.659 125.737 269.891 126.171 270.303 126.296L279.231 129.004C279.642 129.128 280.077 128.896 280.201 128.485L280.38 127.896C280.505 127.485 280.273 127.05 279.861 126.926L270.933 124.218C270.522 124.093 270.087 124.326 269.963 124.737Z" fill="white"/>
<path d="M80.5942 219.252C117.381 219.252 147.203 216.277 147.203 212.608C147.203 208.939 117.381 205.965 80.5942 205.965C43.8074 205.965 13.9858 208.939 13.9858 212.608C13.9858 216.277 43.8074 219.252 80.5942 219.252Z" fill="#EDF0F7"/>
<path d="M60.6947 121.772C60.7401 122.239 61.3808 127.133 66.4149 127.133C71.697 127.133 70.8125 121.904 70.8125 121.904L70.8208 121.871C70.3041 121.764 69.7503 121.727 69.1634 121.793V119.317L63.1663 115.961H62.9472V121.739C62.9431 121.739 61.9925 121.627 60.6947 121.772Z" fill="#B68472"/>
<path d="M63.6056 104.911C62.7542 105.774 62.1135 106.89 61.8035 108.25C61.229 110.792 61.7705 113.479 62.5062 115.925C62.6302 116.343 62.7748 116.768 63.0352 117.12C63.2212 117.372 63.4568 117.579 63.6924 117.785C64.7587 118.715 65.8251 119.645 66.8914 120.575C67.6147 121.207 72.0536 121.732 72.9009 121.125C76.1661 118.79 76.7943 112.024 76.1413 108.564C75.0543 102.828 67.6808 100.778 63.6056 104.911Z" fill="#B68472"/>
<path d="M65.4407 112.246C65.3952 111.692 64.829 111.089 64.2586 111.448C63.6676 111.82 63.8081 112.8 64.052 113.341C64.2421 113.763 64.8869 114.23 65.3208 113.833C65.6845 113.502 65.1183 113.114 65.1018 112.812C65.0852 112.539 65.6267 112.345 65.4035 112.056" fill="#795548"/>
<path d="M65.3372 114.803C64.742 114.98 63.7335 114.526 63.4773 113.699C63.221 112.868 63.25 111.922 63.25 111.922C63.25 111.922 62.9482 112.674 63.1053 113.881C63.2582 115.088 63.6839 116.237 64.6304 116.253C65.5769 116.27 65.3372 114.803 65.3372 114.803Z" fill="#795548"/>
<path d="M66.0647 113.942C66.0853 113.95 66.106 113.958 66.1308 113.962C66.4986 114.012 66.6474 113.57 66.7012 113.289C66.8293 112.636 66.8086 111.978 66.8334 111.317C66.8376 111.152 66.8252 110.945 66.8913 110.792C67.0979 110.317 67.6518 110.011 67.8171 109.519C68.0114 108.949 67.4617 108.383 67.6807 107.759C68.0155 106.804 69.243 106.585 70.1316 106.593C71.4625 106.61 72.7603 106.858 74.0746 107.06C75.4592 107.275 77.2323 107.477 78.4557 106.601C79.9271 105.543 80.5429 102.791 79.4435 101.282C78.8442 100.459 77.7076 100.021 76.7115 100.001C75.6576 99.9759 74.7648 100.604 73.7977 100.922C73.0248 101.175 72.2808 100.439 71.5617 100.294C70.6565 100.112 70.2722 101.1 69.4703 101.129C68.6933 101.154 67.9287 100.546 67.1723 100.41C65.6638 100.133 65.7505 101.65 64.7421 102.166C64.1138 102.489 63.2996 102.295 62.6631 102.621C62.1796 102.869 62.1134 103.307 62.006 103.799C61.915 104.225 61.9109 104.721 61.7704 105.126C61.6422 105.489 61.3364 105.721 61.0967 106.006C60.8363 106.316 60.6668 106.684 60.5346 107.072C60.2411 107.94 60.175 108.874 60.2577 109.784C60.3941 111.309 60.8818 112.809 61.3901 114.243C61.7208 115.173 61.8448 116.145 62.349 117.025C62.4854 117.261 63.093 117.955 63.3162 117.438C63.3658 117.327 63.3575 117.203 63.3492 117.083C63.2831 116.124 62.3903 109.937 64.7297 110.681C65.2215 110.838 65.5522 111.247 65.734 111.714C65.9531 112.272 65.9696 112.834 65.9407 113.425C65.9365 113.508 65.9324 113.594 65.9365 113.677C65.9448 113.785 65.9737 113.896 66.0647 113.942Z" fill="#0E1524"/>
<path d="M69.1601 121.229C66.4942 120.799 64.7377 118.695 64.7377 118.695C64.7377 118.695 65.4568 122.241 69.3213 122.432L69.1601 121.229Z" fill="#795548"/>
<path d="M64.7871 169.562H60.9723V206.153C60.9723 206.525 61.274 206.827 61.6459 206.827H64.1134C64.4854 206.827 64.7871 206.525 64.7871 206.153V169.562Z" fill="#0A2033"/>
<path d="M73.3682 170.086H52.3968V170.66C52.3968 172.103 53.5665 173.268 55.0048 173.268H70.7561C72.1985 173.268 73.364 172.099 73.364 170.66V170.086H73.3682Z" fill="#30475E"/>
<path d="M64.7866 202.48H60.9718V210.957C60.9718 211.329 61.2735 211.631 61.6455 211.631H64.1129C64.4849 211.631 64.7866 211.329 64.7866 210.957V202.48Z" fill="#0A2033"/>
<path d="M82.6709 209.396C82.6709 210.628 81.6707 211.628 80.439 211.628C79.2073 211.628 78.2071 210.628 78.2071 209.396C78.2071 208.164 79.2073 207.164 80.439 207.164C81.6707 207.164 82.6709 208.164 82.6709 209.396Z" fill="#0A2033"/>
<path d="M47.5557 209.396C47.5557 210.628 46.5555 211.628 45.3238 211.628C44.0921 211.628 43.0919 210.628 43.0919 209.396C43.0919 208.164 44.0921 207.164 45.3238 207.164C46.5555 207.164 47.5557 208.164 47.5557 209.396Z" fill="#0A2033"/>
<path d="M66.7125 206.34H59.0415V199.636H66.7125V206.34Z" fill="#30475E"/>
<path d="M82.6709 207.923H43.0924V207.146C43.0924 205.832 44.1587 204.77 45.4689 204.77H80.2944C81.6087 204.77 82.6709 205.836 82.6709 207.146V207.923Z" fill="#5F6769"/>
<path d="M62.882 174.016H64.2046V199.042H62.882V174.016Z" fill="#30475E"/>
<path d="M47.8991 143.048C48.8125 143.019 49.5565 143.775 49.5069 144.689C49.2465 149.231 50.2095 160.312 54.4377 164.093C59.6123 168.714 74.2724 168.086 74.2724 168.086C74.2724 168.086 76.6944 171.058 71.8504 171.719C67.0064 172.38 53.359 171.938 50.0607 168.859C46.8659 165.875 44.9688 158.059 46.3988 144.457C46.4774 143.676 47.1138 143.072 47.8991 143.048Z" fill="#5F6769"/>
<path d="M75.3676 199.055L73.6234 203.031L78.9675 205.374L80.7158 201.386L75.3676 199.055Z" fill="#B68472"/>
<path d="M50.1728 154.859C50.5034 155.521 74.2398 154.872 76.48 155.078C76.48 155.078 91.0078 162.014 93.095 168.503C93.3058 169.156 93.3637 170.02 93.3017 171.053C92.7189 180.191 82.3118 202.076 82.3118 202.076L80.7123 201.377L75.364 199.046L74.6036 198.716C74.6036 198.716 82.8573 174.115 81.2082 172.797C79.5591 171.474 60.8486 168.176 54.3596 166.42C47.8624 164.651 50.1728 154.859 50.1728 154.859Z" fill="#37445F"/>
<path d="M95.7317 200.071L95.3142 206.044H101.146L101.563 200.055L95.7317 200.071Z" fill="#B68472"/>
<path d="M76.6038 154.879L76.8145 154.97C76.8145 154.97 101.134 158.384 105.097 165.203C107.672 169.642 102.688 202.066 102.688 202.066L94.0826 202.087C94.0826 202.087 95.368 175.077 94.9423 173.573C94.4587 171.858 93.6363 171.234 93.3056 171.056C93.3717 170.027 93.3139 169.159 93.099 168.506C91.0117 162.013 76.4839 155.081 76.4839 155.081C76.5294 155.052 76.5707 154.978 76.6038 154.879Z" fill="#2F3C57"/>
<path d="M53.111 132.406L54.7436 132.629C54.7436 132.629 55.1404 137.027 56.1116 141.425L76.4299 149.137L76.7069 150.608C76.7937 150.6 76.8805 150.596 76.959 150.588C76.9507 150.889 76.9507 151.187 76.9383 151.464C76.8929 153.163 76.7813 154.382 76.6035 154.87C76.5705 154.969 76.5291 155.043 76.4837 155.076C75.9298 155.527 68.7465 154.655 60.9763 157.507C54.2393 159.982 50.4617 162.681 50.2881 162.322C48.1678 157.924 52.0199 140.648 53.111 132.406Z" fill="#F1F4F9"/>
<path d="M55.2315 142.486C55.773 145.085 57.1741 150.264 59.9185 150.959C63.506 151.868 70.4372 151.822 76.9344 151.475C76.9468 151.198 76.9468 150.901 76.9551 150.599C76.8765 150.607 76.7898 150.611 76.703 150.62L76.426 149.148L56.1077 141.436C55.1365 137.038 54.7397 132.641 54.7397 132.641C54.7397 132.641 54.7397 132.665 54.7314 132.715C54.6942 133.385 54.4173 138.642 55.2315 142.486Z" fill="#CBCFD7"/>
<path d="M75.5994 125.914C75.9631 126.575 76.4839 133.639 76.7691 140.653L80.9229 136.776C79.158 133.366 75.5994 125.914 75.5994 125.914Z" fill="#F1F4F9"/>
<path d="M78.0877 145.776C81.5925 146.383 84.8163 146.904 84.8163 146.904L84.8246 147.078C88.7263 143.961 94.6655 135.133 94.6655 135.133C94.6655 135.133 92.8883 133 92.4461 132.438C92.3799 132.352 82.7002 139.014 82.2042 138.956C82.0802 138.944 81.5843 138.072 80.923 136.778L76.7692 140.655C76.8353 142.325 76.8891 143.99 76.9221 145.569C77.3106 145.639 77.6992 145.706 78.0877 145.776Z" fill="#B68472"/>
<path d="M84.8168 146.912L84.9036 149.805H95.4678C95.4678 149.805 94.418 145.676 91.5579 145.676C88.6978 145.676 87.5942 147.188 87.5942 147.188L84.8168 146.912Z" fill="#B68472"/>
<path d="M92.5247 132.368L92.4461 132.434C92.8884 132.996 94.6656 135.129 94.6656 135.129L95.7691 134.348C95.7691 134.348 96.9843 135.088 98.3978 134.315C99.8691 133.517 98.9599 131.608 98.8855 131.38C99.1707 131.459 100.935 132.889 101.212 132.736C101.489 132.583 101.696 132.083 99.7204 130.136C97.753 128.19 95.0706 130.69 94.9921 130.69L92.5247 132.368Z" fill="#B68472"/>
<path d="M98.1624 133.988C98.1624 133.988 98.5881 134.786 97.8317 135.133C97.0754 135.48 95.604 135.728 94.9716 135.67C94.3393 135.608 93.835 134.724 93.835 134.724L95.7486 132.926H97.282L98.1624 133.988Z" fill="#B68472"/>
<path d="M98.2779 134.384C98.1663 133.992 97.0751 134.202 96.4014 134.219C95.9055 134.231 95.6327 134.099 95.4798 133.723C95.3268 133.343 96.046 132.743 96.1906 132.929C96.3312 133.12 95.9303 133.384 95.9179 133.636C95.9055 133.888 96.6288 133.971 97.1826 133.971C97.7364 133.971 98.6953 134.116 98.6953 134.116L98.2779 134.384Z" fill="#795548"/>
<path d="M57.1413 145.186L67.4906 141.52C68.2428 142.925 69.0487 143.983 69.8464 144.194C71.0533 144.512 73.9754 145.057 76.9182 145.574C77.3067 145.648 77.6993 145.715 78.0878 145.785C81.5927 146.392 84.8165 146.913 84.8165 146.913L84.8248 147.087V147.198L84.9033 149.806V150.468C84.9033 150.468 81.3902 150.29 76.9595 150.6C70.7598 151.042 62.7623 151.307 60.113 150.058C58.873 149.472 57.8811 147.541 57.0999 145.165C57.1165 145.173 57.1289 145.177 57.1413 145.186Z" fill="#B68472"/>
<path d="M67.4905 141.52L57.1412 145.186L57.6083 146.57L67.8501 142.177L67.4905 141.52Z" fill="#795548"/>
<path d="M67.4909 141.521C68.2431 142.926 69.049 143.984 69.8467 144.195C71.0536 144.513 73.9757 145.059 76.9185 145.576C76.8854 143.997 76.8317 142.335 76.7655 140.661C76.4804 133.648 75.9596 126.584 75.5959 125.923C75.0007 124.819 73.3764 122.422 70.8139 121.877L70.8056 121.91C70.8056 121.91 71.6901 127.138 66.408 127.138C61.378 127.138 60.7374 122.244 60.6878 121.777C58.1004 122.067 54.1285 123.36 53.583 128.564C53.4714 129.593 53.3102 130.916 53.1077 132.412L54.7402 132.635C54.7402 132.635 55.4015 139.963 57.0961 145.162C57.1085 145.171 57.1209 145.175 57.1374 145.183L67.4909 141.521Z" fill="#F1F4F9"/>
<path d="M67.5977 140.569L63.4646 130.562L66.5065 140.97L67.5977 140.569Z" fill="#CBCFD7"/>
<path d="M60.6956 121.777H62.9481C62.9481 121.777 66.1512 125.295 68.2137 125.295C70.2761 125.295 69.1643 121.794 69.1643 121.794H70.1686C73.0576 121.794 75.4838 123.964 75.8103 126.832C75.8475 127.163 75.8805 127.473 75.9095 127.754C76.1285 129.882 67.5069 131.432 67.5069 131.432L63.0679 131.184L60.3732 125.923L59.8359 123.769L60.6956 121.777Z" fill="#F1F4F9"/>
<path d="M87.8662 209.943C87.6637 211.017 86.9198 211.782 85.8452 211.584L71.5033 208.91C71.1396 208.843 70.8999 208.492 70.9701 208.128L71.2057 206.855C71.2057 206.855 86.2915 209.496 87.8745 209.935L87.8662 209.943Z" fill="white"/>
<path d="M83.6006 206.337C83.4518 206.209 83.3072 206.076 83.1584 205.948C82.8691 205.692 82.588 205.44 82.3152 205.196C82.1706 205.068 82.0259 204.94 81.8936 204.816C81.6333 204.58 81.3853 204.361 81.1621 204.163C81.005 204.018 80.8562 203.882 80.7198 203.762C80.476 203.543 80.2735 203.361 80.1329 203.237C80.0131 203.13 79.8312 203.121 79.7072 203.229C79.1162 203.725 77.2108 204.857 73.7597 202.72C73.5944 202.617 73.3794 202.671 73.2885 202.844L71.2013 206.858C71.2013 206.858 86.2871 209.499 87.8701 209.937C87.3535 209.614 85.4275 207.949 83.6006 206.337Z" fill="#0E1524"/>
<path d="M110.453 209.795C110.429 210.89 109.813 211.762 108.717 211.738L94.1318 211.382C93.7639 211.374 93.4705 211.068 93.4788 210.696L93.5118 209.402C93.5118 209.402 108.825 209.605 110.458 209.787L110.453 209.795Z" fill="white"/>
<path d="M105.667 206.909C105.498 206.806 105.337 206.703 105.167 206.595C104.841 206.389 104.522 206.186 104.217 205.988C104.055 205.884 103.89 205.781 103.741 205.682C103.444 205.492 103.167 205.314 102.919 205.153C102.737 205.037 102.572 204.925 102.419 204.826C102.142 204.648 101.914 204.504 101.757 204.401C101.621 204.314 101.443 204.334 101.336 204.458C100.832 205.041 99.1329 206.463 95.3842 204.905C95.2064 204.83 94.9998 204.917 94.9419 205.099L93.5201 209.393C93.5201 209.393 108.833 209.596 110.466 209.778C109.895 209.546 107.726 208.211 105.667 206.909Z" fill="#0E1524"/>
<path d="M120.828 150.465L128.619 129.688H106.445L98.6542 150.465H120.828Z" fill="#EDF0F7"/>
<path d="M97.2822 150.465H98.6544L106.445 129.688L105.197 129.745L97.9931 148.547L97.2822 150.465Z" fill="#CBCFD7"/>
<path d="M97.712 150.47H83.0601L83.1015 149.16C83.1015 149.16 97.7698 149.16 98.0137 149.16" fill="#CBCFD7"/>
<path d="M35.2848 154.43H38.8145V212.388H35.2848V154.43Z" fill="#8495A0"/>
<path d="M54.4342 154.43H57.9639V212.388H54.4342V154.43Z" fill="#ABB5BA"/>
<path d="M115.786 154.43H119.315V212.388H115.786V154.43Z" fill="#8495A0"/>
<path d="M134.934 154.43H138.464V212.388H134.934V154.43Z" fill="#ABB5BA"/>
<path d="M31.7556 154.648H141.845C142.791 154.648 143.56 153.879 143.56 152.932V152.18C143.56 151.234 142.791 150.465 141.845 150.465H31.7556C30.8091 150.465 30.0404 151.234 30.0404 152.18V152.932C30.0404 153.883 30.8091 154.648 31.7556 154.648Z" fill="#37445F"/>
<path d="M124.916 131.879L124.536 132.887H120.122L120.498 131.879H124.916Z" fill="#9EA7BA"/>
<path d="M80.9186 136.781L81.2368 137.393L76.7689 142.014V140.658L80.9186 136.781Z" fill="#795548"/>
</g>
<defs>
<filter id="filter0_d" x="-4" y="0" width="303" height="240" filterUnits="userSpaceOnUse" color-interpolation-filters="sRGB">
<feFlood flood-opacity="0" result="BackgroundImageFix"/>
<feColorMatrix in="SourceAlpha" type="matrix" values="0 0 0 0 0 0 0 0 0 0 0 0 0 0 0 0 0 0 127 0"/>
<feOffset dy="4"/>
<feGaussianBlur stdDeviation="2"/>
<feColorMatrix type="matrix" values="0 0 0 0 0 0 0 0 0 0 0 0 0 0 0 0 0 0 0.25 0"/>
<feBlend mode="normal" in2="BackgroundImageFix" result="effect1_dropShadow"/>
<feBlend mode="normal" in="SourceGraphic" in2="effect1_dropShadow" result="shape"/>
</filter>
</defs>
</svg>
